<svg xmlns="http://www.w3.org/2000/svg" viewBox="0 0 111.07 94.96" xmlns:v="https://vecta.io/nano"><path d="M1.5 1.5h108.07v91.96H1.5z" fill="#9d9d9c"/><path d="m108.07,3v88.96H3V3h105.07m3-3H0v94.96h111.07V0h0Z" fill="#1d1d1b"/><path d="M3 91.96V3h33.26a11.19 11.19 0 0 1 9.16 4.77l5.13 7.33a11.52 11.52 0 0 0 9.43 4.91h39.77a8.35 8.35 0 0 1 8.34 8.34v63.61H3z" fill="#fff"/><path d="M36.26 6a8.17 8.17 0 0 1 6.7 3.49l5.13 7.33a14.5 14.5 0 0 0 11.89 6.19h39.77c2.94 0 5.34 2.39 5.34 5.34v60.61H6V6h30.26m0-6H0v94.96h111.07V28.35c0-6.26-5.08-11.34-11.34-11.34H59.96c-2.78 0-5.38-1.36-6.97-3.63l-5.13-7.33C45.22 2.26 40.88 0 36.26 0h0z" fill="#1d1d1b"/></svg>