<svg xmlns="http://www.w3.org/2000/svg" viewBox="0 0 143.76 143.76" xmlns:v="https://vecta.io/nano"><style><![CDATA[.D{letter-spacing:.02em}]]></style><path d="M109.54 34.22h13.39c8.19 0 14.84 6.64 14.84 14.84v88.7H38.69V6H94.7c8.19 0 14.84 6.64 14.84 14.84v13.39zM32.69 0v143.76h111.07V47.51a17.06 17.06 0 0 0-5.01-12.08L108.33 5.01A17.1 17.1 0 0 0 96.25 0H32.68z" fill="#1d1d1b"/><path d="M1.5 119.25V75.03c0-5.42 4.41-9.84 9.84-9.84H123.5v44.22c0 5.42-4.41 9.84-9.84 9.84H1.5z" fill="#fff"/><path d="M122 66.69v42.72a8.35 8.35 0 0 1-8.34 8.34H3V75.03a8.35 8.35 0 0 1 8.34-8.34H122m3-3H11.34C5.08 63.69 0 68.77 0 75.03v45.72h113.66c6.26 0 11.34-5.08 11.34-11.34V63.69h0z" fill="#1d1d1b"/><text font-family="AllumiStdExtended-Bold,Allumi Std Extended" font-size="43" font-weight="700"><tspan class="D" x="12.04" y="106.77">T</tspan><tspan x="46.61" y="106.77">TF</tspan></text></svg>