<svg width="22" height="12" viewBox="0 0 22 12" fill="none" xmlns="http://www.w3.org/2000/svg">
<path id="chevron-down-solid" d="M9.99097 11.0281C10.2591 11.2962 10.6228 11.4468 11.002 11.4468C11.3812 11.4468 11.7448 11.2962 12.013 11.0281L20.582 2.45915C20.7187 2.32727 20.8277 2.16946 20.9028 1.99496C20.9778 1.82046 21.0173 1.63278 21.0191 1.44284C21.0208 1.2529 20.9846 1.06451 20.9127 0.888699C20.8408 0.712885 20.7346 0.553149 20.6003 0.418835C20.466 0.284521 20.3062 0.178314 20.1304 0.106411C19.9546 0.0345087 19.7662 -0.0016462 19.5763 5.75282e-05C19.3863 0.00176126 19.1986 0.0413 19.0241 0.116345C18.8497 0.19139 18.6919 0.300444 18.56 0.437146L11 7.99714L3.43997 0.441143C3.30809 0.304441 3.15029 0.195387 2.9758 0.120343C2.8013 0.0452978 2.6136 0.00575906 2.42366 0.00405533C2.23372 0.0023516 2.04534 0.0385065 1.86953 0.110409C1.69371 0.182312 1.53399 0.288534 1.39967 0.422848C1.26536 0.557162 1.15915 0.716882 1.08724 0.892697C1.01534 1.06851 0.979189 1.25689 0.980892 1.44683C0.982596 1.63678 1.02213 1.82448 1.09717 1.99897C1.17221 2.17347 1.28127 2.33126 1.41797 2.46315L9.98697 11.0321L9.99097 11.0281Z" fill="#333333"/>
</svg>
