<svg xmlns="http://www.w3.org/2000/svg" width="15" height="20" viewBox="0 0 15 20">
  <path id="file-pdf-solid" d="M2.5,0A2.5,2.5,0,0,0,0,2.5v15A2.5,2.5,0,0,0,2.5,20h10A2.5,2.5,0,0,0,15,17.5V6.25H10A1.249,1.249,0,0,1,8.75,5V0ZM10,0V5h5ZM2.5,8.75h.938a2.188,2.188,0,0,1,0,4.375H3.125v1.25a.625.625,0,0,1-1.25,0v-5A.627.627,0,0,1,2.5,8.75Zm.938,3.125a.938.938,0,0,0,0-1.875H3.125v1.875Zm2.813-2.5a.627.627,0,0,1,.625-.625h.938a1.875,1.875,0,0,1,1.875,1.875v2.5A1.875,1.875,0,0,1,7.813,15H6.875a.627.627,0,0,1-.625-.625ZM7.5,13.75h.313a.627.627,0,0,0,.625-.625v-2.5A.627.627,0,0,0,7.813,10H7.5Zm3.75-5h1.875a.625.625,0,0,1,0,1.25h-1.25v1.25h1.25a.625.625,0,0,1,0,1.25h-1.25v1.875a.625.625,0,0,1-1.25,0v-5A.627.627,0,0,1,11.25,8.75Z" fill="#4daf2e"/>
</svg>
