<svg xmlns="http://www.w3.org/2000/svg" xmlns:xlink="http://www.w3.org/1999/xlink" width="391.358" height="112.872" viewBox="0 0 391.358 112.872">
  <defs>
    <clipPath id="clip-path">
      <path id="Pfad_19" data-name="Pfad 19" d="M0,0H391.358V-112.872H0Z" fill="none"/>
    </clipPath>
  </defs>
  <g id="Gruppe_804" data-name="Gruppe 804" transform="translate(0 112.872)">
    <g id="Gruppe_751" data-name="Gruppe 751" clip-path="url(#clip-path)">
      <g id="Gruppe_745" data-name="Gruppe 745" transform="translate(162.499 -56.909)">
        <path id="Pfad_13" data-name="Pfad 13" d="M0,0A45.786,45.786,0,0,1,45.784-45.784,45.788,45.788,0,0,1,91.569,0,45.783,45.783,0,0,1,45.784,45.78,45.78,45.78,0,0,1,0,0" fill="#fff"/>
      </g>
      <g id="Gruppe_746" data-name="Gruppe 746" transform="translate(2.652 -17.057)">
        <path id="Pfad_14" data-name="Pfad 14" d="M0,0V-15.316H1.6c2.323,0,4.31.305,6.11,1.868A7.556,7.556,0,0,1,10.27-7.654,7.549,7.549,0,0,1,7.808-2C6.008-.332,4,0,1.6,0ZM-2.2,2H1.468C4.547,2,6.9,1.619,9.249-.435a9.219,9.219,0,0,0,3.217-7.2,9.251,9.251,0,0,0-3.273-7.353C6.87-16.93,4.464-17.318,1.516-17.318H-2.2Z" fill="#17171a"/>
      </g>
      <g id="Gruppe_747" data-name="Gruppe 747" transform="translate(23.666 -25.538)">
        <path id="Pfad_15" data-name="Pfad 15" d="M0,0A4.321,4.321,0,0,1,4.365,4.46,4.307,4.307,0,0,1,0,8.92,4.3,4.3,0,0,1-4.357,4.46,4.319,4.319,0,0,1,0,0M0,10.812A6.354,6.354,0,0,0,6.455,4.484,6.381,6.381,0,0,0,0-1.9a6.382,6.382,0,0,0-6.451,6.38A6.353,6.353,0,0,0,0,10.812" fill="#17171a"/>
      </g>
      <g id="Gruppe_748" data-name="Gruppe 748" transform="translate(35.19 -27.101)">
        <path id="Pfad_16" data-name="Pfad 16" d="M0,0H-2.089V12.043H0V6.328C0,4.175.186,1.563,3.063,1.563c2.426,0,2.58,1.742,2.58,3.689v6.791h2.09V4.895c0-2.813-.78-5.227-4.179-5.227a4.155,4.155,0,0,0-3.5,1.8H0Z" fill="#17171a"/>
      </g>
      <g id="Gruppe_749" data-name="Gruppe 749" transform="translate(58.211 -27.101)">
        <path id="Pfad_17" data-name="Pfad 17" d="M0,0H-2.09V1.718h-.059a5.328,5.328,0,0,0-4.2-2.05c-3.68,0-5.9,2.948-5.9,6.379,0,3.332,2.271,6.328,5.88,6.328a5.18,5.18,0,0,0,4.227-2h.059v1.67H0ZM-6.118,1.563A4.06,4.06,0,0,1-1.987,5.916c0,2.438-1.413,4.564-4.1,4.564-2.612,0-4.032-2.232-4.032-4.587a4.116,4.116,0,0,1,4-4.33" fill="#17171a"/>
      </g>
      <g id="Gruppe_750" data-name="Gruppe 750" transform="translate(64.128 -27.101)">
        <path id="Pfad_18" data-name="Pfad 18" d="M0,0H-2.09V6.945c0,3.2,1.231,5.43,4.864,5.43s4.86-2.228,4.86-5.43V0H5.54V6.716c0,2.022-.233,3.764-2.766,3.764S0,8.738,0,6.716Z" fill="#17171a"/>
      </g>
    </g>
    <path id="Pfad_20" data-name="Pfad 20" d="M73.736-20.286h5.356v-1.9H73.736Z" fill="#17171a"/>
    <g id="Gruppe_752" data-name="Gruppe 752" transform="translate(79.241 -34.375)">
      <path id="Pfad_21" data-name="Pfad 21" d="M0,0H-2.378L5.169,20.313,11.548,4.765l6.376,15.548L25.471,0H23.1L17.924,14.477,11.548-1,5.169,14.477Z" fill="#17171a"/>
    </g>
    <g id="Gruppe_754" data-name="Gruppe 754" clip-path="url(#clip-path)">
      <g id="Gruppe_753" data-name="Gruppe 753" transform="translate(116.347 -27.101)">
        <path id="Pfad_22" data-name="Pfad 22" d="M0,0H-2.09V1.718h-.063a5.34,5.34,0,0,0-4.2-2.05c-3.68,0-5.9,2.948-5.9,6.379,0,3.332,2.275,6.328,5.876,6.328a5.168,5.168,0,0,0,4.227-2h.063v1.67H0ZM-6.114,1.563A4.061,4.061,0,0,1-1.987,5.916c0,2.438-1.42,4.564-4.1,4.564-2.612,0-4.028-2.232-4.028-4.587a4.116,4.116,0,0,1,4.005-4.33" fill="#17171a"/>
      </g>
    </g>
    <path id="Pfad_24" data-name="Pfad 24" d="M120.273-15.058h2.09V-36.19h-2.09Z" fill="#17171a"/>
    <g id="Gruppe_762" data-name="Gruppe 762" clip-path="url(#clip-path)">
      <g id="Gruppe_755" data-name="Gruppe 755" transform="translate(135.41 -15.058)">
        <path id="Pfad_25" data-name="Pfad 25" d="M0,0H2.09V-21.133H0v10.808H-.047a5.37,5.37,0,0,0-4.207-2.05c-3.685,0-5.905,2.948-5.905,6.379,0,3.333,2.268,6.328,5.869,6.328a5.284,5.284,0,0,0,4.243-2H0ZM-4.025-10.479A4.056,4.056,0,0,1,.107-6.126c0,2.438-1.409,4.563-4.1,4.563-2.62,0-4.025-2.232-4.025-4.587a4.113,4.113,0,0,1,3.993-4.329" fill="#17171a"/>
      </g>
      <g id="Gruppe_756" data-name="Gruppe 756" transform="translate(148.759 -112.872)">
        <path id="Pfad_26" data-name="Pfad 26" d="M0,0V112.757M118.876.111V112.872" fill="none" stroke="#17171a" stroke-miterlimit="3.864" stroke-width="1.856"/>
      </g>
      <g id="Gruppe_757" data-name="Gruppe 757" transform="translate(282.372 -28.557)">
        <path id="Pfad_27" data-name="Pfad 27" d="M0,0V-9.854H1.009A5.345,5.345,0,0,1,4.86-8.647,4.9,4.9,0,0,1,6.471-4.931,4.921,4.921,0,0,1,4.927-1.286,5.214,5.214,0,0,1,1.009,0ZM-1.385,1.282H.922a6.564,6.564,0,0,0,4.9-1.567A5.965,5.965,0,0,0,7.848-4.911,6,6,0,0,0,5.79-9.641,6.78,6.78,0,0,0,.95-11.129H-1.385Z" fill="#17171a"/>
      </g>
      <g id="Gruppe_758" data-name="Gruppe 758" transform="translate(295.662 -34.019)">
        <path id="Pfad_28" data-name="Pfad 28" d="M0,0A2.747,2.747,0,0,1,2.739,2.865,2.73,2.73,0,0,1,0,5.73,2.737,2.737,0,0,1-2.758,2.865,2.753,2.753,0,0,1,0,0M0,6.953A4.042,4.042,0,0,0,4.057,2.885,4.059,4.059,0,0,0,0-1.215a4.064,4.064,0,0,0-4.072,4.1A4.042,4.042,0,0,0,0,6.953" fill="#17171a"/>
      </g>
      <g id="Gruppe_759" data-name="Gruppe 759" transform="translate(302.955 -35.016)">
        <path id="Pfad_29" data-name="Pfad 29" d="M0,0H-1.318V7.741H0V4.064C0,2.687.119,1,1.927,1,3.459,1,3.558,2.129,3.558,3.376V7.741H4.876V3.15c0-1.816-.5-3.364-2.636-3.364A2.6,2.6,0,0,0,.032.942H0Z" fill="#17171a"/>
      </g>
      <g id="Gruppe_760" data-name="Gruppe 760" transform="translate(317.499 -35.016)">
        <path id="Pfad_30" data-name="Pfad 30" d="M0,0H-1.318V1.1H-1.35A3.376,3.376,0,0,0-4.009-.214a3.794,3.794,0,0,0-3.72,4.1A3.823,3.823,0,0,0-4.017,7.955,3.269,3.269,0,0,0-1.35,6.668h.032V7.741H0ZM-3.851,1a2.591,2.591,0,0,1,2.6,2.806A2.637,2.637,0,0,1-3.839,6.732,2.664,2.664,0,0,1-6.372,3.791,2.622,2.622,0,0,1-3.851,1" fill="#17171a"/>
      </g>
      <g id="Gruppe_761" data-name="Gruppe 761" transform="translate(321.267 -35.016)">
        <path id="Pfad_31" data-name="Pfad 31" d="M0,0H-1.322V4.464c0,2.058.772,3.491,3.063,3.491S4.8,6.522,4.8,4.464V0H3.491V4.318c0,1.294-.155,2.414-1.75,2.414S0,5.612,0,4.318Z" fill="#17171a"/>
      </g>
    </g>
    <path id="Pfad_33" data-name="Pfad 33" d="M327.357-30.639h3.382v-1.219h-3.382Z" fill="#17171a"/>
    <g id="Gruppe_763" data-name="Gruppe 763" transform="translate(330.868 -39.69)">
      <path id="Pfad_34" data-name="Pfad 34" d="M0,0H-1.508L3.257,13.048,7.27,3.059l4.017,9.989L16.052,0h-1.5L11.287,9.3,7.27-.649,3.257,9.3Z" fill="#17171a"/>
    </g>
    <g id="Gruppe_765" data-name="Gruppe 765" clip-path="url(#clip-path)">
      <g id="Gruppe_764" data-name="Gruppe 764" transform="translate(354.284 -35.016)">
        <path id="Pfad_35" data-name="Pfad 35" d="M0,0H-1.314V1.1h-.039A3.339,3.339,0,0,0-4-.214c-2.323,0-3.72,1.892-3.72,4.1a3.821,3.821,0,0,0,3.7,4.069A3.252,3.252,0,0,0-1.353,6.668h.039V7.741H0ZM-3.855,1a2.59,2.59,0,0,1,2.6,2.806A2.636,2.636,0,0,1-3.839,6.732,2.669,2.669,0,0,1-6.372,3.791,2.624,2.624,0,0,1-3.855,1" fill="#17171a"/>
      </g>
    </g>
    <path id="Pfad_37" data-name="Pfad 37" d="M356.8-27.275h1.323V-40.86H356.8Z" fill="#17171a"/>
    <g id="Gruppe_767" data-name="Gruppe 767" clip-path="url(#clip-path)">
      <g id="Gruppe_766" data-name="Gruppe 766" transform="translate(366.378 -27.275)">
        <path id="Pfad_38" data-name="Pfad 38" d="M0,0H1.318V-13.59H0v6.949H-.032A3.369,3.369,0,0,0-2.687-7.955c-2.323,0-3.716,1.892-3.716,4.1A3.82,3.82,0,0,0-2.7.214,3.3,3.3,0,0,0-.032-1.073H0ZM-2.537-6.74a2.589,2.589,0,0,1,2.6,2.806A2.637,2.637,0,0,1-2.521-1.009,2.669,2.669,0,0,1-5.058-3.95,2.627,2.627,0,0,1-2.537-6.74" fill="#17171a"/>
      </g>
    </g>
    <g id="Gruppe_768" data-name="Gruppe 768" transform="translate(287.604 -53.668)">
      <path id="Pfad_40" data-name="Pfad 40" d="M0,0H-4.191L-2.07-4.975ZM.546,1.286,2.014,4.808H3.542L-2.042-8.2-7.769,4.808h1.52l1.5-3.522Z" fill="#17171a"/>
    </g>
    <g id="Gruppe_772" data-name="Gruppe 772" clip-path="url(#clip-path)">
      <g id="Gruppe_769" data-name="Gruppe 769" transform="translate(292.563 -48.86)">
        <path id="Pfad_41" data-name="Pfad 41" d="M0,0H1.318V-1.069h.035A3.252,3.252,0,0,0,4.017.218,3.83,3.83,0,0,0,7.725-3.87a3.8,3.8,0,0,0-3.72-4.089A3.322,3.322,0,0,0,1.353-6.641H1.318V-13.59H0ZM3.768-6.74a2.59,2.59,0,0,1,2.6,2.8A2.637,2.637,0,0,1,3.791-1.009,2.672,2.672,0,0,1,1.255-3.954,2.619,2.619,0,0,1,3.768-6.74" fill="#17171a"/>
      </g>
      <g id="Gruppe_770" data-name="Gruppe 770" transform="translate(303.676 -55.386)">
        <path id="Pfad_42" data-name="Pfad 42" d="M0,0H1.963V-1.219H0V-3.835C0-5.2,0-5.956,1.068-5.956a2.807,2.807,0,0,1,.9.174v-1.33a3.182,3.182,0,0,0-.942-.162A2.248,2.248,0,0,0-.97-6.3a3.921,3.921,0,0,0-.348,2v3.079h-.724V0h.724V6.526H0Z" fill="#17171a"/>
      </g>
      <g id="Gruppe_771" data-name="Gruppe 771" transform="translate(313.89 -56.6)">
        <path id="Pfad_43" data-name="Pfad 43" d="M0,0H-1.314V1.1h-.043A3.354,3.354,0,0,0-4.005-.218c-2.319,0-3.716,1.9-3.716,4.1a3.817,3.817,0,0,0,3.7,4.072,3.251,3.251,0,0,0,2.66-1.286h.043V7.741H0ZM-3.855,1a2.586,2.586,0,0,1,2.6,2.8A2.636,2.636,0,0,1-3.839,6.732,2.668,2.668,0,0,1-6.372,3.787,2.623,2.623,0,0,1-3.855,1" fill="#17171a"/>
      </g>
    </g>
    <path id="Pfad_45" data-name="Pfad 45" d="M316.4-48.859h1.317V-62.444H316.4Z" fill="#17171a"/>
    <path id="Pfad_46" data-name="Pfad 46" d="M320.2-48.859h1.321V-62.444H320.2Z" fill="#17171a"/>
    <g id="Gruppe_773" data-name="Gruppe 773" transform="translate(324.326 -56.6)">
      <path id="Pfad_47" data-name="Pfad 47" d="M0,0H-1.5l3.8,8.283L4.7,2.521l2.39,5.762L10.923,0h-1.5l-2.3,5.24L4.7-.59,2.291,5.24Z" fill="#17171a"/>
    </g>
    <g id="Gruppe_776" data-name="Gruppe 776" clip-path="url(#clip-path)">
      <g id="Gruppe_774" data-name="Gruppe 774" transform="translate(337.587 -60.459)">
        <path id="Pfad_48" data-name="Pfad 48" d="M0,0A.951.951,0,0,0-.934.946.934.934,0,0,0,0,1.884.943.943,0,0,0,.942.946.96.96,0,0,0,0,0M.665,3.859H-.656V11.6H.665Z" fill="#17171a"/>
      </g>
      <g id="Gruppe_775" data-name="Gruppe 775" transform="translate(342.317 -56.6)">
        <path id="Pfad_49" data-name="Pfad 49" d="M0,0H-1.314V7.745H0V3.87C0,2.865.067,1,1.52,1a1.264,1.264,0,0,1,.787.352L2.932.15A2.311,2.311,0,0,0,1.745-.214,2,2,0,0,0,.032.843H0Z" fill="#17171a"/>
      </g>
    </g>
    <g id="Gruppe_777" data-name="Gruppe 777" transform="translate(348.376 -55.386)">
      <path id="Pfad_51" data-name="Pfad 51" d="M0,0H1.389V-1.219H0V-4H-1.314v2.778h-.811V0h.811V6.526H0Z" fill="#17171a"/>
    </g>
    <g id="Gruppe_783" data-name="Gruppe 783" clip-path="url(#clip-path)">
      <g id="Gruppe_778" data-name="Gruppe 778" transform="translate(355.242 -55.386)">
        <path id="Pfad_52" data-name="Pfad 52" d="M0,0A2.341,2.341,0,0,0-2.062-1.433,2.212,2.212,0,0,0-4.365.756C-4.365,3.2-.871,2.6-.871,4.333A1.173,1.173,0,0,1-2.125,5.517c-.871,0-1.247-.511-1.583-1.231l-1.172.5A2.8,2.8,0,0,0-2.137,6.74,2.534,2.534,0,0,0,.479,4.219,2.353,2.353,0,0,0-1.314,2c-.914-.376-1.8-.641-1.8-1.35a.938.938,0,0,1,.958-.859A1.234,1.234,0,0,1-1.1.582Z" fill="#17171a"/>
      </g>
      <g id="Gruppe_779" data-name="Gruppe 779" transform="translate(363.418 -56.042)">
        <path id="Pfad_53" data-name="Pfad 53" d="M0,0A4.2,4.2,0,0,0-2.382-.776a4.089,4.089,0,0,0-4.14,4.084A4.016,4.016,0,0,0-2.4,7.4a4.252,4.252,0,0,0,2.45-.792V4.836H.016A2.994,2.994,0,0,1-2.505,6.174,2.715,2.715,0,0,1-5.172,3.308,2.776,2.776,0,0,1-2.434.439a2.99,2.99,0,0,1,2.4,1.306H0Z" fill="#17171a"/>
      </g>
      <g id="Gruppe_780" data-name="Gruppe 780" transform="translate(365.607 -62.45)">
        <path id="Pfad_54" data-name="Pfad 54" d="M0,0V13.59H1.322V9.91c0-1.374.107-3.06,1.919-3.06,1.532,0,1.631,1.124,1.631,2.375V13.59H6.19v-4.6c0-1.812-.495-3.364-2.632-3.364A2.6,2.6,0,0,0,1.346,6.787l-.024-.036V0Z" fill="#17171a"/>
      </g>
      <g id="Gruppe_781" data-name="Gruppe 781" transform="translate(381.468 -56.6)">
        <path id="Pfad_55" data-name="Pfad 55" d="M0,0H-1.318V1.1h-.039A3.343,3.343,0,0,0-4.005-.218c-2.323,0-3.724,1.9-3.724,4.1A3.825,3.825,0,0,0-4.021,7.958,3.252,3.252,0,0,0-1.357,6.672h.039V7.741H0ZM-3.855,1a2.588,2.588,0,0,1,2.6,2.8,2.636,2.636,0,0,1-2.58,2.929A2.671,2.671,0,0,1-6.376,3.787,2.624,2.624,0,0,1-3.855,1" fill="#17171a"/>
      </g>
      <g id="Gruppe_782" data-name="Gruppe 782" transform="translate(385.446 -55.386)">
        <path id="Pfad_56" data-name="Pfad 56" d="M0,0H1.959V-1.219H0V-3.835C0-5.2,0-5.956,1.065-5.956a2.743,2.743,0,0,1,.894.174v-1.33a3.16,3.16,0,0,0-.942-.162A2.251,2.251,0,0,0-.973-6.3a3.992,3.992,0,0,0-.341,2v3.079h-.728V0h.728V6.526H0Z" fill="#17171a"/>
      </g>
    </g>
    <g id="Gruppe_784" data-name="Gruppe 784" transform="translate(388.663 -59.383)">
      <path id="Pfad_58" data-name="Pfad 58" d="M0,0V2.778H-.815V4H0v6.526H1.314V4H2.695V2.778H1.314V0Z" fill="#17171a"/>
    </g>
    <g id="Gruppe_785" data-name="Gruppe 785" transform="translate(282.254 -71.726)">
      <path id="Pfad_59" data-name="Pfad 59" d="M0,0,6.787-11.128H-1.429V-9.85H4.48L-2.287,1.286H6.605V0Z" fill="#17171a"/>
    </g>
    <g id="Gruppe_786" data-name="Gruppe 786" transform="translate(291.051 -78.185)">
      <path id="Pfad_60" data-name="Pfad 60" d="M0,0H-1.5L2.307,8.283,4.69,2.521,7.076,8.283,10.915,0h-1.5L7.112,5.24,4.69-.59l-2.4,5.83Z" fill="#17171a"/>
    </g>
    <g id="Gruppe_789" data-name="Gruppe 789" clip-path="url(#clip-path)">
      <g id="Gruppe_787" data-name="Gruppe 787" transform="translate(304.131 -75.153)">
        <path id="Pfad_61" data-name="Pfad 61" d="M0,0A2.443,2.443,0,0,1,2.355-2.03,2.362,2.362,0,0,1,4.622,0ZM6,1.12C6.142-1.187,4.82-3.249,2.335-3.249c-2.426,0-3.756,1.9-3.756,4.183A3.753,3.753,0,0,0,2.367,4.923,3.912,3.912,0,0,0,5.944,2.747L4.82,2.105A2.64,2.64,0,0,1,2.466,3.7,2.5,2.5,0,0,1-.071,1.12Z" fill="#17171a"/>
      </g>
      <g id="Gruppe_788" data-name="Gruppe 788" transform="translate(317.796 -77.627)">
        <path id="Pfad_62" data-name="Pfad 62" d="M0,0A4.2,4.2,0,0,0-2.386-.776,4.083,4.083,0,0,0-6.522,3.308,4.01,4.01,0,0,0-2.4,7.4,4.233,4.233,0,0,0,.047,6.605V4.84H.012A2.981,2.981,0,0,1-2.5,6.174,2.713,2.713,0,0,1-5.169,3.308,2.764,2.764,0,0,1-2.442.443a3,3,0,0,1,2.41,1.3H0Z" fill="#17171a"/>
      </g>
    </g>
    <g id="Gruppe_790" data-name="Gruppe 790" transform="translate(321.235 -84.034)">
      <path id="Pfad_64" data-name="Pfad 64" d="M0,0H-1.326V13.594H0V10.412l.348-.348,3.111,3.53H5.208L1.266,9.146l3.309-3.3H2.81L0,8.71Z" fill="#17171a"/>
    </g>
    <g id="Gruppe_791" data-name="Gruppe 791" transform="translate(328.078 -78.185)">
      <path id="Pfad_65" data-name="Pfad 65" d="M0,0H-1.5L2.307,8.255,6.1,0H4.61l-2.3,5.2Z" fill="#17171a"/>
    </g>
    <g id="Gruppe_800" data-name="Gruppe 800" clip-path="url(#clip-path)">
      <g id="Gruppe_792" data-name="Gruppe 792" transform="translate(336.266 -75.153)">
        <path id="Pfad_66" data-name="Pfad 66" d="M0,0A2.452,2.452,0,0,1,2.351-2.03,2.363,2.363,0,0,1,4.622,0ZM6.011,1.12C6.142-1.187,4.82-3.249,2.339-3.249c-2.426,0-3.76,1.9-3.76,4.183A3.75,3.75,0,0,0,2.367,4.923,3.916,3.916,0,0,0,5.944,2.747L4.82,2.105A2.634,2.634,0,0,1,2.469,3.7,2.5,2.5,0,0,1-.067,1.12Z" fill="#17171a"/>
      </g>
      <g id="Gruppe_793" data-name="Gruppe 793" transform="translate(345.431 -78.185)">
        <path id="Pfad_67" data-name="Pfad 67" d="M0,0H-1.314V7.745H0V3.866C0,2.865.071,1,1.524,1a1.25,1.25,0,0,1,.783.353L2.932.146a2.346,2.346,0,0,0-1.183-.36A2,2,0,0,0,.036.843H0Z" fill="#17171a"/>
      </g>
      <g id="Gruppe_794" data-name="Gruppe 794" transform="translate(349.717 -70.444)">
        <path id="Pfad_68" data-name="Pfad 68" d="M0,0H1.318V-1.072h.028A3.261,3.261,0,0,0,4.009.214,3.836,3.836,0,0,0,7.725-3.874,3.8,3.8,0,0,0,3.993-7.958,3.338,3.338,0,0,0,1.346-6.641H1.318V-13.59H0ZM3.768-6.74a2.591,2.591,0,0,1,2.6,2.806,2.642,2.642,0,0,1-2.6,2.925A2.674,2.674,0,0,1,1.243-3.954,2.629,2.629,0,0,1,3.768-6.74" fill="#17171a"/>
      </g>
      <g id="Gruppe_795" data-name="Gruppe 795" transform="translate(366.45 -78.185)">
        <path id="Pfad_69" data-name="Pfad 69" d="M0,0H-1.306V1.1h-.036A3.378,3.378,0,0,0-4-.218a3.794,3.794,0,0,0-3.72,4.1,3.819,3.819,0,0,0,3.7,4.073A3.26,3.26,0,0,0-1.342,6.668h.036V7.741H0ZM-3.843,1a2.589,2.589,0,0,1,2.6,2.806A2.638,2.638,0,0,1-3.831,6.732,2.676,2.676,0,0,1-6.368,3.787,2.629,2.629,0,0,1-3.843,1" fill="#17171a"/>
      </g>
      <g id="Gruppe_796" data-name="Gruppe 796" transform="translate(370.324 -78.185)">
        <path id="Pfad_70" data-name="Pfad 70" d="M0,0H-1.318V7.745H0V4.072C0,2.687.119,1,1.931,1,3.463,1,3.562,2.129,3.562,3.376V7.745h1.31V3.15c0-1.812-.5-3.364-2.636-3.364A2.588,2.588,0,0,0,.032.942H0Z" fill="#17171a"/>
      </g>
      <g id="Gruppe_797" data-name="Gruppe 797" transform="translate(383.55 -70.444)">
        <path id="Pfad_71" data-name="Pfad 71" d="M0,0H1.318V-13.59H0v6.949H-.028A3.377,3.377,0,0,0-2.683-7.958c-2.327,0-3.724,1.895-3.724,4.1A3.822,3.822,0,0,0-2.7.214,3.328,3.328,0,0,0-.028-1.072H0ZM-2.533-6.74a2.592,2.592,0,0,1,2.6,2.806A2.643,2.643,0,0,1-2.521-1.009,2.673,2.673,0,0,1-5.058-3.954,2.629,2.629,0,0,1-2.533-6.74" fill="#17171a"/>
      </g>
      <g id="Gruppe_798" data-name="Gruppe 798" transform="translate(205.49 -11.413)">
        <path id="Pfad_72" data-name="Pfad 72" d="M0,0C-26.757.473-47.272-22.6-44.736-49.117c2.581-26.994,27.41-43.437,45.892-43.121,26.974.463,45.9,18.949,47.5,43.121C50.5-21.212,32.5-2.4,9.225-5.074-4.84-6.688-15.688-24.216-14.524-35.511c.534-5.283,6.217-16.835,16.368-20.06v9.68l20.29-20.516L1.844-86.476v9A29.425,29.425,0,0,0-7.143-75.4c-8.307,3.225-15.462,9-21.216,18.9-3.887,6.684-4.757,18.252-2.541,27.671C-23.519,2.535,12.909-.232,0,0" fill="#5ebe4b"/>
      </g>
      <g id="Gruppe_799" data-name="Gruppe 799" transform="translate(205.49 -11.413)">
        <path id="Pfad_73" data-name="Pfad 73" d="M0,0C-26.757.473-47.272-22.6-44.736-49.117c2.581-26.994,27.41-43.437,45.892-43.121,26.974.463,45.9,18.949,47.5,43.121C50.5-21.212,32.5-2.4,9.225-5.074-4.84-6.688-15.688-24.216-14.524-35.511c.534-5.283,6.217-16.835,16.368-20.06v9.68l20.29-20.516L1.844-86.476v9A29.425,29.425,0,0,0-7.143-75.4c-8.307,3.225-15.462,9-21.216,18.9-3.887,6.684-4.757,18.252-2.541,27.671C-23.519,2.535,12.909-.232,0,0Z" fill="none" stroke="#53be5d" stroke-miterlimit="3.864" stroke-width="0.162"/>
      </g>
    </g>
    <g id="Gruppe_801" data-name="Gruppe 801" transform="translate(3.289 -95.107)">
      <path id="Pfad_75" data-name="Pfad 75" d="M0,0V4.994H22.767L-3.289,48.285H30.947V43.291H5.521L31.64,0Z" fill="#17171a"/>
    </g>
    <g id="Gruppe_802" data-name="Gruppe 802" transform="translate(60.403 -65.524)">
      <path id="Pfad_76" data-name="Pfad 76" d="M0,0H-16.166l8.18-19.34ZM2.1,5l5.64,13.7h5.9L-7.856-31.89-29.919,18.7h5.834L-18.315,5Z" fill="#17171a"/>
    </g>
    <g id="Gruppe_803" data-name="Gruppe 803" transform="translate(76.083 -95.799)">
      <path id="Pfad_77" data-name="Pfad 77" d="M0,0H-5.77L12.557,50.783,28.019,11.908l15.47,38.875L61.816,0H56.038L43.489,36.18,28.019-2.5,12.557,36.18Z" fill="#17171a"/>
    </g>
  </g>
</svg>
